<?xml version="1.0" encoding="UTF-8"?>
<svg id="Layer_2" data-name="Layer 2" xmlns="http://www.w3.org/2000/svg" width="5000" height="5000" xmlns:xlink="http://www.w3.org/1999/xlink" viewBox="0 0 5000 5000">
  <defs>
    <style>
      .cls-1 {
        fill: url(#linear-gradient-2);
      }

      .cls-2 {
        fill: url(#linear-gradient-4);
      }

      .cls-3 {
        fill: url(#linear-gradient-3);
      }

      .cls-4 {
        fill: url(#linear-gradient-5);
      }

      .cls-5 {
        fill: url(#linear-gradient-8);
      }

      .cls-6 {
        fill: url(#linear-gradient-7);
      }

      .cls-7 {
        fill: url(#linear-gradient-9);
      }

      .cls-8 {
        fill: url(#linear-gradient-6);
      }

      .cls-9 {
        fill: url(#linear-gradient);
      }
    </style>
    <linearGradient id="linear-gradient" x1="2225.26" y1="1227.34" x2="2225.26" y2="1454.27" gradientTransform="translate(-163.16 769.55) rotate(-17.11)" gradientUnits="userSpaceOnUse">
      <stop offset="0" stop-color="#000"/>
      <stop offset=".09" stop-color="#414042"/>
      <stop offset=".91" stop-color="#414042"/>
      <stop offset="1" stop-color="#000"/>
    </linearGradient>
    <linearGradient id="linear-gradient-2" x1="1371.08" y1="1227.82" x2="1371.08" y2="1455.38" gradientTransform="translate(-163.16 769.55) rotate(-17.11)" gradientUnits="userSpaceOnUse">
      <stop offset="0" stop-color="#e6e7e8"/>
      <stop offset=".09" stop-color="#fff"/>
      <stop offset=".91" stop-color="#fff"/>
      <stop offset="1" stop-color="#e6e7e8"/>
    </linearGradient>
    <linearGradient id="linear-gradient-3" x1="1673.01" y1="1227.81" x2="1673.01" y2="1455.38" xlink:href="#linear-gradient-2"/>
    <linearGradient id="linear-gradient-4" x1="1974.93" y1="1227.81" x2="1974.93" y2="1455.38" xlink:href="#linear-gradient-2"/>
    <linearGradient id="linear-gradient-5" x1="2276.86" y1="1227.81" x2="2276.86" y2="1455.37" xlink:href="#linear-gradient-2"/>
    <linearGradient id="linear-gradient-6" x1="2578.79" y1="1227.81" x2="2578.79" y2="1455.37" xlink:href="#linear-gradient-2"/>
    <linearGradient id="linear-gradient-7" x1="2880.71" y1="1227.81" x2="2880.71" y2="1455.37" xlink:href="#linear-gradient-2"/>
    <linearGradient id="linear-gradient-8" x1="3182.64" y1="1227.81" x2="3182.64" y2="1455.37" xlink:href="#linear-gradient-2"/>
    <linearGradient id="linear-gradient-9" x1="3484.57" y1="1227.04" x2="3484.57" y2="1453.03" xlink:href="#linear-gradient-2"/>
  </defs>
  <path class="cls-9" d="M3572.41,902.95l-2520.99,776.07c-40.96,12.61-63.94,56.04-51.33,96.99l43.66,141.81,2694.24-829.4-35.98-116.88c-16.85-54.73-74.87-85.44-129.59-68.59Z"/>
  <polygon class="cls-1" points="1703.3 1714.79 1567.78 1756.5 1379.28 1578.09 1514.8 1536.37 1703.3 1714.79"/>
  <polygon class="cls-3" points="1991.85 1625.96 1856.33 1667.68 1667.83 1489.26 1803.35 1447.54 1991.85 1625.96"/>
  <polygon class="cls-2" points="2280.4 1537.13 2144.88 1578.85 1956.38 1400.43 2091.9 1358.71 2280.4 1537.13"/>
  <polygon class="cls-4" points="2568.95 1448.3 2433.43 1490.02 2244.93 1311.6 2380.45 1269.89 2568.95 1448.3"/>
  <polygon class="cls-8" points="2857.5 1359.47 2721.98 1401.19 2533.48 1222.78 2669.01 1181.06 2857.5 1359.47"/>
  <polygon class="cls-6" points="3146.05 1270.64 3010.53 1312.36 2822.03 1133.95 2957.56 1092.23 3146.05 1270.64"/>
  <polygon class="cls-5" points="3434.6 1181.82 3299.08 1223.54 3110.58 1045.12 3246.11 1003.4 3434.6 1181.82"/>
  <polygon class="cls-7" points="3723.15 1092.99 3587.63 1134.71 3399.14 956.29 3534.66 914.57 3723.15 1092.99"/>
</svg>