<?xml version="1.0" encoding="UTF-8"?>
<svg id="Layer_3" data-name="Layer 3" xmlns="http://www.w3.org/2000/svg" xmlns:xlink="http://www.w3.org/1999/xlink" viewBox="0 0 3177.02 2097.29">
  <defs>
    <style>
      .cls-1 {
        fill: url(#linear-gradient-2);
      }

      .cls-2 {
        fill: url(#linear-gradient-10);
      }

      .cls-3 {
        fill: #fff;
      }

      .cls-4 {
        fill: url(#linear-gradient-4);
      }

      .cls-5 {
        fill: url(#linear-gradient-3);
      }

      .cls-6 {
        fill: url(#linear-gradient-5);
      }

      .cls-7 {
        fill: url(#linear-gradient-8);
      }

      .cls-8 {
        fill: url(#linear-gradient-7);
      }

      .cls-9 {
        fill: url(#linear-gradient-9);
      }

      .cls-10 {
        fill: url(#linear-gradient-6);
      }

      .cls-11 {
        fill: url(#linear-gradient);
      }
    </style>
    <linearGradient id="linear-gradient" x1="83.79" y1="250.59" x2="3086.66" y2="2049.31" gradientUnits="userSpaceOnUse">
      <stop offset="0" stop-color="#000"/>
      <stop offset="1" stop-color="#2c292a"/>
    </linearGradient>
    <linearGradient id="linear-gradient-2" x1="1588.51" y1="3.42" x2="1588.51" y2="252.52" gradientUnits="userSpaceOnUse">
      <stop offset="0" stop-color="#000"/>
      <stop offset=".09" stop-color="#414042"/>
      <stop offset=".91" stop-color="#414042"/>
      <stop offset="1" stop-color="#000"/>
    </linearGradient>
    <linearGradient id="linear-gradient-3" x1="625.9" y1="0" x2="625.9" y2="255.88" gradientUnits="userSpaceOnUse">
      <stop offset="0" stop-color="#e6e7e8"/>
      <stop offset=".09" stop-color="#fff"/>
      <stop offset=".91" stop-color="#fff"/>
      <stop offset="1" stop-color="#e6e7e8"/>
    </linearGradient>
    <linearGradient id="linear-gradient-4" x1="966.15" x2="966.15" xlink:href="#linear-gradient-3"/>
    <linearGradient id="linear-gradient-5" x1="1306.41" x2="1306.41" xlink:href="#linear-gradient-3"/>
    <linearGradient id="linear-gradient-6" x1="1646.67" x2="1646.67" xlink:href="#linear-gradient-3"/>
    <linearGradient id="linear-gradient-7" x1="1986.92" x2="1986.92" xlink:href="#linear-gradient-3"/>
    <linearGradient id="linear-gradient-8" x1="2327.18" x2="2327.18" xlink:href="#linear-gradient-3"/>
    <linearGradient id="linear-gradient-9" x1="2667.43" x2="2667.43" xlink:href="#linear-gradient-3"/>
    <linearGradient id="linear-gradient-10" x1="3007.69" x2="3007.69" xlink:href="#linear-gradient-3"/>
  </defs>
  <path class="cls-11" d="M76.16,254.67v1731.51c0,61.37,49.75,111.11,111.11,111.11h2802.48c61.36,0,111.11-49.75,111.11-111.11V254.67H76.16Z"/>
  <rect class="cls-3" x="323.93" y="654.64" width="2529.16" height="15.04"/>
  <rect class="cls-3" x="323.93" y="1369.88" width="2529.16" height="15.04"/>
  <polygon class="cls-3" points="2853.09 1504.23 323.93 1504.23 323.93 1519.27 1157.26 1519.27 1157.26 2000.62 1172.3 2000.62 1172.3 1519.27 1998.11 1519.27 1998.11 2000.62 2013.15 2000.62 2013.15 1519.27 2853.09 1519.27 2853.09 1504.23"/>
  <path class="cls-3" d="M2853.09,828.36v-15.04H323.93v15.04h520.77v263.24H323.93v15.04h2529.16v-15.04h-1472.57v-263.24h1472.57ZM1365.48,1091.6h-505.73v-263.24h505.73v263.24Z"/>
  <path class="cls-1" d="M0,0v167.22c0,48.3,39.15,87.45,87.45,87.45h3051.06c21.26,0,38.5-17.24,38.5-38.5V0H0Z"/>
  <polygon class="cls-5" points="777.74 0 617.93 0 474.06 254.67 633.87 254.67 777.74 0"/>
  <polygon class="cls-4" points="1117.99 0 958.19 0 814.32 254.67 974.12 254.67 1117.99 0"/>
  <polygon class="cls-6" points="1458.25 0 1298.44 0 1154.57 254.67 1314.38 254.67 1458.25 0"/>
  <polygon class="cls-10" points="1798.5 0 1638.7 0 1494.83 254.67 1654.63 254.67 1798.5 0"/>
  <polygon class="cls-8" points="2138.76 0 1978.95 0 1835.08 254.67 1994.89 254.67 2138.76 0"/>
  <polygon class="cls-7" points="2479.01 0 2319.21 0 2175.34 254.67 2335.14 254.67 2479.01 0"/>
  <polygon class="cls-9" points="2819.27 0 2659.47 0 2515.6 254.67 2675.4 254.67 2819.27 0"/>
  <polygon class="cls-2" points="3159.53 0 2999.72 0 2855.85 254.67 3015.66 254.67 3159.53 0"/>
</svg>