<?xml version="1.0" encoding="UTF-8"?>
<svg id="Layer_2" data-name="Layer 2" xmlns="http://www.w3.org/2000/svg" xmlns:xlink="http://www.w3.org/1999/xlink" viewBox="0 0 2866.12 2880.46">
  <defs>
    <style>
      .cls-1 {
        fill: url(#linear-gradient-2);
      }

      .cls-2 {
        fill: url(#linear-gradient-4);
      }

      .cls-3 {
        fill: url(#linear-gradient-3);
      }

      .cls-4 {
        fill: url(#linear-gradient-5);
      }

      .cls-5 {
        fill: url(#linear-gradient-8);
      }

      .cls-6 {
        fill: url(#linear-gradient-7);
      }

      .cls-7 {
        fill: url(#linear-gradient-9);
      }

      .cls-8 {
        fill: url(#linear-gradient-6);
      }

      .cls-9 {
        fill: url(#linear-gradient);
      }
    </style>
    <linearGradient id="linear-gradient" x1="1228.62" y1="329.01" x2="1228.62" y2="555.94" gradientTransform="translate(56.97 436.54) rotate(-17.11)" gradientUnits="userSpaceOnUse">
      <stop offset="0" stop-color="#000"/>
      <stop offset=".09" stop-color="#414042"/>
      <stop offset=".91" stop-color="#414042"/>
      <stop offset="1" stop-color="#000"/>
    </linearGradient>
    <linearGradient id="linear-gradient-2" x1="374.44" y1="329.48" x2="374.44" y2="557.05" gradientTransform="translate(56.97 436.54) rotate(-17.11)" gradientUnits="userSpaceOnUse">
      <stop offset="0" stop-color="#e6e7e8"/>
      <stop offset=".09" stop-color="#fff"/>
      <stop offset=".91" stop-color="#fff"/>
      <stop offset="1" stop-color="#e6e7e8"/>
    </linearGradient>
    <linearGradient id="linear-gradient-3" x1="676.37" y1="329.48" x2="676.37" y2="557.04" xlink:href="#linear-gradient-2"/>
    <linearGradient id="linear-gradient-4" x1="978.3" y1="329.48" x2="978.3" y2="557.04" xlink:href="#linear-gradient-2"/>
    <linearGradient id="linear-gradient-5" x1="1280.22" y1="329.48" x2="1280.22" y2="557.04" xlink:href="#linear-gradient-2"/>
    <linearGradient id="linear-gradient-6" x1="1582.15" y1="329.48" x2="1582.15" y2="557.04" xlink:href="#linear-gradient-2"/>
    <linearGradient id="linear-gradient-7" x1="1884.07" y1="329.48" x2="1884.07" y2="557.04" xlink:href="#linear-gradient-2"/>
    <linearGradient id="linear-gradient-8" x1="2186" y1="329.47" x2="2186" y2="557.04" xlink:href="#linear-gradient-2"/>
    <linearGradient id="linear-gradient-9" x1="2487.93" y1="328.71" x2="2487.93" y2="554.69" xlink:href="#linear-gradient-2"/>
  </defs>
  <path class="cls-9" d="M2575.78,4.62L54.79,780.68c-40.96,12.61-63.94,56.04-51.33,96.99l43.66,141.81L2741.35,190.09l-35.98-116.88c-16.85-54.73-74.87-85.44-129.59-68.59Z"/>
  <polygon class="cls-1" points="706.66 816.45 571.14 858.17 382.64 679.76 518.16 638.04 706.66 816.45"/>
  <polygon class="cls-3" points="995.21 727.62 859.69 769.34 671.19 590.93 806.71 549.21 995.21 727.62"/>
  <polygon class="cls-2" points="1283.76 638.8 1148.24 680.51 959.74 502.1 1095.26 460.38 1283.76 638.8"/>
  <polygon class="cls-4" points="1572.31 549.97 1436.79 591.69 1248.29 413.27 1383.81 371.55 1572.31 549.97"/>
  <polygon class="cls-8" points="1860.86 461.14 1725.34 502.86 1536.84 324.44 1672.37 282.72 1860.86 461.14"/>
  <polygon class="cls-6" points="2149.41 372.31 2013.89 414.03 1825.39 235.62 1960.92 193.9 2149.41 372.31"/>
  <polygon class="cls-5" points="2437.96 283.48 2302.44 325.2 2113.94 146.79 2249.47 105.07 2437.96 283.48"/>
  <polygon class="cls-7" points="2726.51 194.66 2590.99 236.37 2402.5 57.96 2538.02 16.24 2726.51 194.66"/>
</svg>