<?xml version="1.0" encoding="UTF-8"?>
<svg id="Layer_1" data-name="Layer 1" xmlns="http://www.w3.org/2000/svg" xmlns:xlink="http://www.w3.org/1999/xlink" viewBox="0 0 2866.12 2880.46">
  <defs>
    <style>
      .cls-1 {
        fill: url(#radial-gradient);
      }

      .cls-2 {
        fill: url(#radial-gradient-3);
      }

      .cls-3 {
        fill: #808285;
      }

      .cls-4 {
        fill: url(#radial-gradient-2);
      }

      .cls-5 {
        fill: url(#linear-gradient);
      }
    </style>
    <linearGradient id="linear-gradient" x1="37.79" y1="847.11" x2="563.28" y2="1304.79" gradientUnits="userSpaceOnUse">
      <stop offset="0" stop-color="#000"/>
      <stop offset="1" stop-color="#2c292a"/>
    </linearGradient>
    <radialGradient id="radial-gradient" cx="190.29" cy="906.52" fx="190.29" fy="906.52" r="36.57" gradientUnits="userSpaceOnUse">
      <stop offset="0" stop-color="#fff"/>
      <stop offset="1" stop-color="#414042"/>
    </radialGradient>
    <radialGradient id="radial-gradient-2" cy="1132.49" fy="1132.49" xlink:href="#radial-gradient"/>
    <radialGradient id="radial-gradient-3" cx="415.52" cy="1132.49" fx="415.52" fy="1132.49" r="36.57" xlink:href="#radial-gradient"/>
  </defs>
  <path class="cls-3" d="M124.71,1251.13c-45.9,0-83.25-37.34-83.25-83.25v-296.76c0-45.9,37.34-83.25,83.25-83.25h203.79c47.54,0,91.59,25.72,114.97,67.11l191.02,338.28c6.86,12.14,6.76,26.58-.27,38.62-7.03,12.05-19.55,19.24-33.5,19.24H124.71Z"/>
  <path class="cls-5" d="M629.57,1196.05l-99.7-176.54-91.33-161.73c-22.41-39.69-64.46-64.24-110.05-64.24H124.71c-42.85,0-77.6,34.74-77.6,77.6v296.76c0,42.85,34.74,77.6,77.6,77.6h476.01c25.37,0,41.33-27.35,28.86-49.43Z"/>
  <circle class="cls-1" cx="190.29" cy="906.52" r="36.57"/>
  <circle class="cls-4" cx="190.29" cy="1132.49" r="36.57"/>
  <circle class="cls-2" cx="415.52" cy="1132.49" r="36.57"/>
</svg>